<?xml version="1.0" encoding="UTF-8" standalone="no"?>
<svg
   version="1.0"
   width="1249pt"
   height="1164pt"
   viewBox="0 0 1249 1164"
   preserveAspectRatio="xMidYMid meet"
   id="svg12"
   sodipodi:docname="mysql_PNG23_1_.svg"
   inkscape:version="1.1 (c68e22c387, 2021-05-23)"
   xmlns:inkscape="http://www.inkscape.org/namespaces/inkscape"
   xmlns:sodipodi="http://sodipodi.sourceforge.net/DTD/sodipodi-0.dtd"
   xmlns="http://www.w3.org/2000/svg"
   xmlns:svg="http://www.w3.org/2000/svg">
  <defs
     id="defs16">
    <clipPath
       clipPathUnits="userSpaceOnUse"
       id="clipPath5428">
      <rect
         style="fill:#00678c;fill-opacity:1;stroke:none;stroke-width:25.5118;stroke-linecap:round;stroke-linejoin:round"
         id="rect5430"
         width="6471.4414"
         height="6426.186"
         x="-5747.3638"
         y="-19678.734"
         ry="9.0036001"
         clip-path="none"
         transform="scale(1,-1)" />
    </clipPath>
  </defs>
  <sodipodi:namedview
     id="namedview14"
     pagecolor="#ffffff"
     bordercolor="#666666"
     borderopacity="1.0"
     inkscape:pageshadow="2"
     inkscape:pageopacity="0.0"
     inkscape:pagecheckerboard="0"
     inkscape:document-units="pt"
     showgrid="false"
     inkscape:zoom="0.05859375"
     inkscape:cx="-546.13333"
     inkscape:cy="2824.5333"
     inkscape:window-width="1920"
     inkscape:window-height="985"
     inkscape:window-x="-8"
     inkscape:window-y="24"
     inkscape:window-maximized="1"
     inkscape:current-layer="g10" />
  <g
     transform="matrix(0.1,0,0,-0.1,0,1280)"
     fill="#000000"
     stroke="none"
     id="g10">
    <path
       d="m -12591.647,12639.435 h 410.807 v 1627.431 l 641.566,-1418.911 c 72.671,-170.557 177.072,-233.735 379.218,-233.735 202.144,0 300.312,63.25 375.39,233.735 l 638.381,1418.911 v -1627.431 h 413.9932 v 1627.431 c 0,157.948 -63.25,233.946 -195.9832,275.027 -312.851,94.77 -521.441,12.609 -616.21,-199.029 l -628.817,-1403.116 -606.79,1403.116 c -91.652,211.638 -303.429,293.799 -619.396,199.029 -129.617,-41.081 -192.797,-117.009 -192.797,-275.027 v -1627.431 z m 3201.3154,1324.072 h 413.9948 v -894.354 c -3.1245,-50.502 15.7952,-164.324 240.8175,-167.369 116.8674,-3.194 891.1661,0 897.3991,0 v 1068.097 h 413.994 v -1463.179 c 0,-360.235 -446.221,-439.138 -654.173,-442.396 h -1301.8324 v 274.815 h 1305.1614 c 265.464,28.473 233.875,161.134 233.875,205.403 v 107.518 h -875.4425 c -407.6897,3.186 -670.0387,183.304 -673.0855,388.708 v 922.898 z m 8880.07961,1036.577 c -252.717,6.373 -448.771,-18.983 -613.09301,-88.535 -47.314,-19.125 -123.244,-19.125 -129.475,-79.046 25.285,-25.144 28.332,-66.295 50.501,-101.142 37.893,-63.25 104.331,-148.457 164.322,-192.655 66.43801,-50.642 132.80401,-101.142 202.21701,-145.411 123.241,-75.787 262.278,-120.054 382.332,-195.912 69.555,-44.269 139.038,-101.143 208.591,-148.598 35.414,-25.287 56.876,-66.438 101.142,-82.162 v 9.566 c -22.097,28.328 -28.473,69.408 -50.5,101.138 -31.661,31.52 -63.25,60.064 -94.911,91.582 -91.58,123.242 -205.402,230.761 -328.644,319.155 -101.144,69.553 -322.272,164.322 -363.352,281.189 l -6.232,6.373 c 69.413,6.373 151.572,31.661 218.01,50.643 107.519,28.33 205.403,22.1 315.896,50.501 50.643,12.746 101.143,28.475 151.787,44.267 v 28.334 c -56.876,56.876 -97.956,132.733 -157.949,186.421 -161.135,139.037 -338.207,274.958 -521.512,388.708 -97.95701,63.179 -224.38501,104.331 -328.64501,157.948 -38.035,18.982 -101.144,28.473 -123.241,60.064 -57.019,69.411 -88.537,161.134 -129.618,243.367 -91.58,173.812 -180.117,366.539 -259.09,549.842 -56.876,123.242 -91.723,246.485 -161.136,360.235 -325.529,537.237 -679.53,862.695 -1223.07,1181.919 -116.868,66.366 -255.905,94.91 -403.723,129.616 l -236.993,12.75 c -50.643,22.098 -101.145,82.161 -145.412,110.635 -180.117,113.75 -644.682,360.234 -777.486,34.706 -85.349,-205.404 126.428,-407.621 198.32,-511.951 53.829,-72.67 123.242,-154.831 161.277,-236.992 21.249,-53.689 28.33,-110.636 50.501,-167.51 50.502,-139.037 97.957,-293.94 164.323,-423.555 35.413,-66.368 72.599,-135.992 116.867,-195.984 25.287,-34.706 69.555,-50.572 78.975,-107.448 -44.269,-63.25 -47.314,-157.947 -72.601,-237.063 -113.82,-357.118 -69.554,-799.514 91.584,-1061.722 50.642,-78.974 169.988,-252.859 331.902,-186.421 142.224,56.876 110.492,236.992 151.574,395.012 9.567,37.893 3.194,63.178 22.098,88.535 v -6.373 l 129.616,-262.278 c 97.956,-154.832 268.654,-316.039 410.807,-423.556 75.786,-56.875 135.849,-154.902 230.618,-189.609 v 9.567 h -6.233 c -18.983,28.325 -47.456,41.075 -72.741,63.172 -56.876,56.876 -120.055,126.43 -164.324,189.609 -132.661,176.931 -249.528,372.913 -353.859,575.129 -50.643,97.957 -94.911,205.403 -135.851,303.359 -19.124,37.965 -19.124,94.911 -50.642,113.752 -47.455,-69.411 -116.868,-129.616 -151.786,-214.894 -60.062,-135.849 -66.296,-303.36 -88.394,-477.173 -12.745,-3.194 -7.087,0 -12.745,-6.373 -101.006,25.213 -135.854,129.614 -173.746,218.009 -94.769,224.385 -110.635,584.62 -28.474,843.782 22.098,66.367 117.009,274.957 79.116,338.135 -19.124,60.064 -82.161,94.77 -117.01,142.225 -41.08,60.062 -85.206,135.849 -113.679,202.217 -75.787,177.07 -113.68,372.912 -195.913,549.914 -38.035,82.161 -104.331,167.509 -158.089,243.295 -60.064,85.349 -126.288,145.412 -173.743,246.485 -15.795,34.706 -37.893,91.653 -12.606,129.616 6.233,25.287 18.981,34.706 44.126,41.081 41.08,34.706 158.089,-9.491 199.171,-28.331 116.867,-47.456 214.822,-91.653 312.778,-157.948 44.267,-31.59 91.725,-91.653 148.599,-107.518 h 66.438 c 101.143,-22.099 214.824,-6.375 309.522,-34.707 167.51,-53.829 319.154,-132.733 455.144,-218.152 413.925,-262.279 755.319,-635.192 985.936,-1080.846 37.893,-72.671 53.688,-139.037 88.536,-214.894 66.439,-154.903 148.599,-312.851 214.823,-464.636 66.438,-148.529 129.618,-300.314 224.386,-423.556 47.455,-66.367 236.994,-101.073 322.27,-135.85 63.25,-28.332 161.136,-53.829 218.153,-88.536 107.37601,-66.365 214.82401,-142.223 315.89601,-214.894 50.502,-37.822 208.591,-116.867 218.012,-179.904 z M -3732.959,17746.255 a 502.17555,502.17555 0 0 1 -129.475,-15.795 v -6.375 h 6.233 c 25.286,-50.57 69.554,-85.347 101.143,-129.615 l 72.74,-151.715 6.233,6.374 c 44.269,31.589 66.438,82.161 66.438,157.948 -18.981,22.099 -22.097,44.267 -37.892,66.366 -18.984,31.59 -60.063,47.455 -85.42,72.671 z"
       fill="#00678c"
       id="path2-7-7"
       style="fill:#00678c;fill-opacity:1;fill-rule:evenodd;stroke:none;stroke-width:70.8287"
       clip-path="url(#clipPath5428)"
       inkscape:original-d="m -12591.647,12639.435 h 410.807 v 1627.431 l 641.566,-1418.911 c 72.671,-170.557 177.072,-233.735 379.218,-233.735 202.144,0 300.312,63.25 375.39,233.735 l 638.381,1418.911 v -1627.431 h 413.9932 v 1627.431 c 0,157.948 -63.25,233.946 -195.9832,275.027 -312.851,94.77 -521.441,12.609 -616.21,-199.029 l -628.817,-1403.116 -606.79,1403.116 c -91.652,211.638 -303.429,293.799 -619.396,199.029 -129.617,-41.081 -192.797,-117.009 -192.797,-275.027 v -1627.431 z m 3201.3154,1324.072 h 413.9948 v -894.354 c -3.1245,-50.502 15.7952,-164.324 240.8175,-167.369 116.8674,-3.194 891.1661,0 897.3991,0 v 1068.097 h 413.994 v -1463.179 c 0,-360.235 -446.221,-439.138 -654.173,-442.396 h -1301.8324 v 274.815 h 1305.1614 c 265.464,28.473 233.875,161.134 233.875,205.403 v 107.518 h -875.4425 c -407.6897,3.186 -670.0387,183.304 -673.0855,388.708 v 922.898 z m 8880.07961,1036.577 c -252.717,6.373 -448.771,-18.983 -613.09301,-88.535 -47.314,-19.125 -123.244,-19.125 -129.475,-79.046 25.285,-25.144 28.332,-66.295 50.501,-101.142 37.893,-63.25 104.331,-148.457 164.322,-192.655 66.43801,-50.642 132.80401,-101.142 202.21701,-145.411 123.241,-75.787 262.278,-120.054 382.332,-195.912 69.555,-44.269 139.038,-101.143 208.591,-148.598 35.414,-25.287 56.876,-66.438 101.142,-82.162 v 9.566 c -22.097,28.328 -28.473,69.408 -50.5,101.138 -31.661,31.52 -63.25,60.064 -94.911,91.582 -91.58,123.242 -205.402,230.761 -328.644,319.155 -101.144,69.553 -322.272,164.322 -363.352,281.189 l -6.232,6.373 c 69.413,6.373 151.572,31.661 218.01,50.643 107.519,28.33 205.403,22.1 315.896,50.501 50.643,12.746 101.143,28.475 151.787,44.267 v 28.334 c -56.876,56.876 -97.956,132.733 -157.949,186.421 -161.135,139.037 -338.207,274.958 -521.512,388.708 -97.95701,63.179 -224.38501,104.331 -328.64501,157.948 -38.035,18.982 -101.144,28.473 -123.241,60.064 -57.019,69.411 -88.537,161.134 -129.618,243.367 -91.58,173.812 -180.117,366.539 -259.09,549.842 -56.876,123.242 -91.723,246.485 -161.136,360.235 -325.529,537.237 -679.53,862.695 -1223.07,1181.919 -116.868,66.366 -255.905,94.91 -403.723,129.616 l -236.993,12.75 c -50.643,22.098 -101.145,82.161 -145.412,110.635 -180.117,113.75 -644.682,360.234 -777.486,34.706 -85.349,-205.404 126.428,-407.621 198.32,-511.951 53.829,-72.67 123.242,-154.831 161.277,-236.992 21.249,-53.689 28.33,-110.636 50.501,-167.51 50.502,-139.037 97.957,-293.94 164.323,-423.555 35.413,-66.368 72.599,-135.992 116.867,-195.984 25.287,-34.706 69.555,-50.572 78.975,-107.448 -44.269,-63.25 -47.314,-157.947 -72.601,-237.063 -113.82,-357.118 -69.554,-799.514 91.584,-1061.722 50.642,-78.974 169.988,-252.859 331.902,-186.421 142.224,56.876 110.492,236.992 151.574,395.012 9.567,37.893 3.194,63.178 22.098,88.535 v -6.373 l 129.616,-262.278 c 97.956,-154.832 268.654,-316.039 410.807,-423.556 75.786,-56.875 135.849,-154.902 230.618,-189.609 v 9.567 h -6.233 c -18.983,28.325 -47.456,41.075 -72.741,63.172 -56.876,56.876 -120.055,126.43 -164.324,189.609 -132.661,176.931 -249.528,372.913 -353.859,575.129 -50.643,97.957 -94.911,205.403 -135.851,303.359 -19.124,37.965 -19.124,94.911 -50.642,113.752 -47.455,-69.411 -116.868,-129.616 -151.786,-214.894 -60.062,-135.849 -66.296,-303.36 -88.394,-477.173 -12.745,-3.194 -7.087,0 -12.745,-6.373 -101.006,25.213 -135.854,129.614 -173.746,218.009 -94.769,224.385 -110.635,584.62 -28.474,843.782 22.098,66.367 117.009,274.957 79.116,338.135 -19.124,60.064 -82.161,94.77 -117.01,142.225 -41.08,60.062 -85.206,135.849 -113.679,202.217 -75.787,177.07 -113.68,372.912 -195.913,549.914 -38.035,82.161 -104.331,167.509 -158.089,243.295 -60.064,85.349 -126.288,145.412 -173.743,246.485 -15.795,34.706 -37.893,91.653 -12.606,129.616 6.233,25.287 18.981,34.706 44.126,41.081 41.08,34.706 158.089,-9.491 199.171,-28.331 116.867,-47.456 214.822,-91.653 312.778,-157.948 44.267,-31.59 91.725,-91.653 148.599,-107.518 h 66.438 c 101.143,-22.099 214.824,-6.375 309.522,-34.707 167.51,-53.829 319.154,-132.733 455.144,-218.152 413.925,-262.279 755.319,-635.192 985.936,-1080.846 37.893,-72.671 53.688,-139.037 88.536,-214.894 66.439,-154.903 148.599,-312.851 214.823,-464.636 66.438,-148.529 129.618,-300.314 224.386,-423.556 47.455,-66.367 236.994,-101.073 322.27,-135.85 63.25,-28.332 161.136,-53.829 218.153,-88.536 107.37601,-66.365 214.82401,-142.223 315.89601,-214.894 50.502,-37.822 208.591,-116.867 218.012,-179.904 z M -3732.959,17746.255 a 502.17555,502.17555 0 0 1 -129.475,-15.795 v -6.375 h 6.233 c 25.286,-50.57 69.554,-85.347 101.143,-129.615 l 72.74,-151.715 6.233,6.374 c 44.269,31.589 66.438,82.161 66.438,157.948 -18.981,22.099 -22.097,44.267 -37.892,66.366 -18.984,31.59 -60.063,47.455 -85.42,72.671 z"
       transform="matrix(2.2868317,0,0,2.2868317,12820.163,-29609.167)" />
    <path
       d="m 5550.471,1779.5537 h 1188.223 c 139.037,0 271.84,28.3321 379.216,78.9733 180.118,82.1611 265.467,192.6543 265.467,338.0654 v 303.3605 c 0,116.8674 -97.957,227.5722 -293.797,303.3591 -101.145,37.8927 -227.574,60.0622 -350.816,60.0622 h -499.342 c -167.51,0 -246.483,50.6426 -268.653,161.1358 -3.11,12.6059 -3.11,25.2853 -3.11,37.8927 v 186.4916 c 0,9.5664 0,22.1004 3.11,34.7063 22.099,85.349 66.366,107.5199 212.486,123.2431 H 7399.88 v 275.027 H 6243.246 c -167.51,0 -255.975,-9.5664 -335.018,-34.8474 -243.368,-75.7868 -350.816,-195.9126 -350.816,-407.5485 v -240.3222 c 0,-186.2785 208.591,-344.4396 562.522,-382.3337 37.893,-3.1922 78.973,-3.1922 120.054,-3.1922 h 426.672 c 15.796,0 31.519,0 44.126,-3.1936 129.616,-12.6059 186.492,-34.7063 224.386,-82.02 25.285,-25.2868 31.66,-47.4562 31.66,-75.9294 v -240.109 c 0,-28.3321 -18.983,-66.4379 -56.876,-97.9564 -37.893,-31.5184 -98.097,-53.6879 -177.072,-56.8758 -15.795,0 -25.144,-3.1936 -41.081,-3.1936 H 5550.471 Z m 4405.192,477.1023 c 0,-281.191 212.486,-439.139 635.333,-470.8691 41.082,-3.1936 78.974,-6.2332 120.055,-6.2332 h 1074.471 v 274.8154 h -1083.891 c -240.322,0 -331.904,60.0622 -331.904,205.4028 V 3681.8707 H 9954.884 V 2256.5854 Z m -2310.079,-12.5354 v 979.559 c 0,249.6711 176.93,401.4579 521.512,448.7716 37.893,3.1922 75.787,6.3728 110.492,6.3728 h 783.649 c 41.081,0 75.928,-3.1936 117.01,-6.3728 344.44,-47.3137 518.183,-199.0299 518.183,-448.7716 v -979.5604 c 0,-202.2164 -72.601,-309.7348 -243.368,-382.4749 l 404.432,-366.468 h -477.103 l -328.644,296.9848 -331.904,-18.9816 h -442.396 a 967.52016,967.52016 0 0 0 -240.18,31.5185 c -262.067,72.8121 -391.683,211.777 -391.683,439.4226 z m 445.512,21.9564 c 0,-12.606 7.089,-25.1442 9.567,-41.082 22.099,-113.6796 129.476,-176.9296 293.798,-176.9296 h 372.979 l -341.253,309.7333 h 477.102 l 300.173,-271.8406 c 57.017,31.661 91.723,75.9294 104.33,132.8052 3.194,12.6045 3.194,28.3321 3.194,41.0805 v 938.621 c 0,12.6059 0,25.1442 -3.194,37.8927 -22.098,107.3773 -129.474,167.3689 -290.681,167.3689 h -622.584 c -183.305,0 -303.359,-78.9732 -303.359,-205.2616 z"
       fill="#ce8b2c"
       id="path4-7"
       style="fill-rule:evenodd;stroke:none;stroke-width:70.8287" />
    <path
       style="fill:#00678c;fill-opacity:1;stroke:none;stroke-width:108.851;stroke-linecap:round;stroke-linejoin:round"
       d="m 38.443364,2634.4865 c 9.53015,544.776 28.506617,897.2333 50.522236,938.3692 70.12899,131.0378 423.28045,182.4233 587.40682,85.4708 104.25885,-61.587 138.25156,-127.9928 524.43388,-1024.503 138.4026,-321.297 263.1455,-572.6715 277.2065,-558.6105 14.061,14.061 162.677,327.3405 330.2578,696.1762 387.4473,852.7501 366.7935,814.704 479.7294,883.7115 172.785,105.5783 510.9538,50.3355 589.4243,-96.288 C 2899.7489,3517.0985 2912,3187.325 2912,2628.104 v -866.1038 h -192 -192 l -1.8818,840 c -1.278,570.4328 -12.135,824.5958 -33.8319,792 -17.5724,-26.4 -174.0839,-364.8 -347.803,-752.0002 -173.7192,-387.2003 -351.2364,-743.6003 -394.4827,-792 -67.666,-75.7298 -103.0818,-87.9998 -253.9996,-87.9998 -126.5198,0 -197.8816,17.7075 -256.1855,63.5693 -53.4337,42.0307 -198.1758,323.1255 -427.19823,829.635 C 622.10668,3076.5402 454.93165,3414.284 441.11719,3405.746 427.30272,3397.2087 416,3023.873 416,2576.1117 V 1762.0002 H 219.59016 23.180317 Z"
       id="path12085" />
    <path
       style="fill:#00678c;fill-opacity:1;stroke:none;stroke-width:108.851;stroke-linecap:round;stroke-linejoin:round"
       d="m 3328,1291.1135 v 109.2337 l 312,20.661 c 171.6,11.3633 492.8478,20.7353 713.8839,20.826 462.2729,0.1951 505.7108,17.9176 532.4521,217.2885 l 18.0908,134.8771 -556.2134,0.18 c -307.0239,0.097 -613.2355,16.0095 -683.4919,35.514 -70.8602,19.6725 -180.7903,88.8472 -248,156.0569 L 3296,2106.4722 v 499.7648 499.7647 h 192 192 V 2614.961 c 0,-435.072 6.67,-497.0768 58.5197,-543.9998 49.6707,-44.9512 141.6091,-52.9597 608,-52.9597 H 4896 v 543.9997 544.0005 h 184 184 l -9.5919,-808.029 C 5243.6712,1393.4825 5244.4079,1396.6392 5015.532,1274.3562 4887.2414,1205.8137 4838.5384,1201.4067 4104,1191.884 l -776,-10.0598 z"
       id="path12124" />
  </g>
</svg>
